<svg id="图层_1" data-name="图层 1" xmlns="http://www.w3.org/2000/svg" viewBox="0 0 128 128"><defs><style>.cls-1{fill:red;}.cls-2{fill:none;stroke:#000;stroke-miterlimit:10;stroke-width:3.5px;}.cls-3{fill:#fec804;}</style></defs><title>beijing</title><path class="cls-1" d="M82.06,34.83a1,1,0,0,1-.19.58,7.93,7.93,0,0,1-10.62,1.93,12.81,12.81,0,0,0-2.87-1.56,3.74,3.74,0,0,0-3.64,1.27c-.45.47-1.14.1-1.14-.6V27.8a.86.86,0,0,1,.11-.45c1.15-2.08,3-3.14,4.67-2.69a12.81,12.81,0,0,1,2.87,1.56,7.82,7.82,0,0,0,9.71-1c.45-.41,1.1,0,1.1.64Z"/><polyline class="cls-2" points="97.87 63.89 97.87 84.92 30.08 84.92 30.08 63.89"/><path class="cls-2" d="M37.61,84.69V81a6.95,6.95,0,1,1,13.9,0v3.66Z"/><path class="cls-2" d="M56.6,84.92v-9a7,7,0,1,1,13.9,0v9"/><path class="cls-2" d="M75.58,84.69V81a7,7,0,0,1,13.91,0v3.66Z"/><path class="cls-2" d="M28.77,84.89H99.48a3.93,3.93,0,0,1,3.93,3.93v4.26H24.84V88.82A3.93,3.93,0,0,1,28.77,84.89Z"/><path class="cls-2" d="M26,93.08h75.89a3.79,3.79,0,0,1,3.79,3.79v9H22.22v-9A3.8,3.8,0,0,1,26,93.08Z"/><path class="cls-2" d="M25.85,54.21c3.95-.86,6.81-2,8.55-3.46s3.42-4.23,5-8.33H88.23a15.27,15.27,0,0,0,4.9,8.33,13.64,13.64,0,0,0,8.72,3.17"/><path class="cls-2" d="M22.25,57.56A2.62,2.62,0,0,1,26.11,54l1.13,1.23A10.48,10.48,0,0,0,35,58.65H93.12a10.46,10.46,0,0,0,8.13-3.87l.52-.64a2.62,2.62,0,0,1,4.09,3.28l0,0-.52.65a15.74,15.74,0,0,1-12.2,5.8H35a15.7,15.7,0,0,1-11.59-5.1Z"/><line class="cls-2" x1="63.85" y1="42.42" x2="63.85" y2="21.72"/><circle cx="63.85" cy="21.91" r="2.67"/><path class="cls-3" d="M68.56,27.64a.08.08,0,0,0-.08-.06h-.76l-.23-.71a.08.08,0,0,0-.08-.06.1.1,0,0,0-.09.06l-.23.71h-.75a.09.09,0,0,0-.09.06.09.09,0,0,0,0,.1l.62.44-.24.71a.09.09,0,0,0,0,.1.11.11,0,0,0,.11,0l.61-.44L68,29h.1a.09.09,0,0,0,0-.1l-.23-.71.61-.44A.09.09,0,0,0,68.56,27.64Z"/><path class="cls-3" d="M69.29,26.41h0l-.15.22-.25-.08h0a0,0,0,0,0,0,0l.16.21-.15.21s0,0,0,0h0l.25-.09.16.21s0,0,0,0,0,0,0,0v-.26l.24-.09h0v0s0,0,0,0l-.25-.07v-.26S69.3,26.41,69.29,26.41Z"/><path class="cls-3" d="M69.92,27.69s0,0,0,0l-.25.07-.14-.22h0s0,0,0,0v.26l-.25.07s0,0,0,0,0,0,0,0l.25.09v.26s0,0,0,0h0l.16-.21.25.09h0a0,0,0,0,0,0,0,0,0,0,0,0,0,0l-.14-.22.16-.2A0,0,0,0,0,69.92,27.69Z"/><path class="cls-3" d="M69.82,29.12s0,0,0,0l-.24-.1,0-.26s0,0,0,0a0,0,0,0,0,0,0l-.17.19-.25-.1h0a0,0,0,0,0,0,0l.13.22-.16.2a0,0,0,0,0,0,0l0,0,.25-.06.14.22h0s0,0,0,0l0-.25.26-.06Z"/><path class="cls-3" d="M69.12,30.14a0,0,0,0,0,0,0l-.2-.16L69,29.7s0,0,0,0a0,0,0,0,0,0,0l-.22.14-.2-.16h0s0,0,0,0l.07.25-.21.14s0,0,0,0l0,0h.26l.08.26a0,0,0,0,0,0,0h0l0,0,.08-.25h.26S69.12,30.15,69.12,30.14Z"/></svg>