<svg id="图层_1" data-name="图层 1" xmlns="http://www.w3.org/2000/svg" viewBox="0 0 128 128"><defs><style>.cls-1,.cls-2,.cls-3,.cls-4{fill:none;stroke-width:3.5px;}.cls-1,.cls-2{stroke:#000;}.cls-1,.cls-2,.cls-3{stroke-miterlimit:10;}.cls-2,.cls-3,.cls-4{stroke-linecap:square;}.cls-3,.cls-4{stroke:#1bea96;}.cls-4{stroke-linejoin:round;}</style></defs><title>mail</title><path class="cls-1" d="M94.41,54.09V66.6H29v-28A16.61,16.61,0,0,1,45.6,22H77.81a16.55,16.55,0,0,1,12.94,6.21"/><rect class="cls-1" x="52.44" y="66.6" width="12.4" height="39.37"/><line class="cls-2" x1="37.01" y1="58.57" x2="47.32" y2="58.57"/><path class="cls-3" d="M62.47,34.3l30.9-6.36A3.11,3.11,0,0,1,97,30.35l4,19.21a3.09,3.09,0,0,1-2.41,3.65L62.24,60.69"/><path class="cls-4" d="M63.25,34.14,91.8,28.27a1.29,1.29,0,0,1,1.13,2.22L77.81,44.32,61.7,38.72"/><path class="cls-1" d="M94.41,62.68V66.6H61.2v-28A16.61,16.61,0,0,1,77.81,22h0a16.51,16.51,0,0,1,9,2.67"/></svg>