<svg id="图层_1" data-name="图层 1" xmlns="http://www.w3.org/2000/svg" viewBox="0 0 128 128"><defs><style>.cls-1{fill:none;stroke:#000;stroke-miterlimit:10;stroke-width:3.5px;}.cls-2{fill:#2cc8ff;}</style></defs><title>tel</title><rect class="cls-1" x="66.78" y="43.53" width="23.08" height="14.57" rx="3.3"/><rect class="cls-2" x="67.85" y="69.58" width="4.22" height="4.22" rx="0.87"/><rect class="cls-2" x="76.21" y="69.58" width="4.22" height="4.22" rx="0.87"/><rect class="cls-2" x="84.57" y="69.58" width="4.22" height="4.22" rx="0.87"/><path class="cls-2" d="M71.2,78.82H68.72a.87.87,0,0,0-.87.86v2.48a.87.87,0,0,0,.87.87H71.2a.86.86,0,0,0,.87-.87V79.68a.86.86,0,0,0-.86-.86Z"/><path class="cls-2" d="M79.56,78.82H77.08a.87.87,0,0,0-.87.86v2.48a.87.87,0,0,0,.87.87h2.48a.87.87,0,0,0,.87-.87V79.68a.85.85,0,0,0-.86-.86Z"/><rect class="cls-2" x="84.57" y="78.82" width="4.22" height="4.22" rx="0.87"/><path class="cls-2" d="M71.2,88H68.72a.88.88,0,0,0-.87.87v2.48a.88.88,0,0,0,.87.87H71.2a.87.87,0,0,0,.87-.87V88.91a.86.86,0,0,0-.86-.87Z"/><path class="cls-2" d="M79.56,88H77.08a.88.88,0,0,0-.87.87v2.48a.88.88,0,0,0,.87.87h2.48a.88.88,0,0,0,.87-.87V88.91a.86.86,0,0,0-.86-.87Z"/><rect class="cls-2" x="84.57" y="88.04" width="4.22" height="4.22" rx="0.87"/><path class="cls-1" d="M55.55,30.37H86.84a17.75,17.75,0,0,1,17.75,17.75V89.19a17.75,17.75,0,0,1-17.75,17.74H41.16A17.75,17.75,0,0,1,23.41,89.19V48.12A17.74,17.74,0,0,1,31.24,33.4"/><rect class="cls-1" x="31.91" y="20.85" width="23.64" height="71.41" rx="6.71"/></svg>