<svg id="图层_1" data-name="图层 1" xmlns="http://www.w3.org/2000/svg" viewBox="0 0 128 128"><defs><style>.cls-1,.cls-2,.cls-4{fill:none;stroke:#000;stroke-width:3.5px;}.cls-1{stroke-linecap:round;}.cls-1,.cls-2{stroke-miterlimit:10;}.cls-3{fill:#fec804;}.cls-4{stroke-linejoin:round;}</style></defs><title>xinzi</title><path class="cls-1" d="M91.2,37.32A5.2,5.2,0,0,0,81,38.59v-.48c-.31-.23-.62-.42-.94-.62V29.16a5.21,5.21,0,1,0-10.41,0v8c-.3,0-.62.61-.93.59V24.44a5.2,5.2,0,0,0-10.4,0V36.25l-.93.37V29.16a5.21,5.21,0,1,0-10.41,0V37.8h0"/><path class="cls-1" d="M44.47,93.73a24.38,24.38,0,0,0,46.89-9.35V78.84"/><path class="cls-2" d="M37.05,78.84H28.46a3.63,3.63,0,0,1-3.63-3.63V41.43a3.62,3.62,0,0,1,3.63-3.63H99.55a3.63,3.63,0,0,1,3.64,3.63V75.21a3.64,3.64,0,0,1-3.64,3.63H62"/><path class="cls-3" d="M61.42,65.25H56a1.46,1.46,0,0,1-1.16-.62,2.78,2.78,0,0,1-.48-1.27,2,2,0,0,1,.48-1.14,1.63,1.63,0,0,1,1.16-.5h5.38V60l-5.38,0a1.57,1.57,0,0,1-1.16-.53,2.17,2.17,0,0,1-.48-1.19,2,2,0,0,1,.48-1.15,1.71,1.71,0,0,1,1.16-.5h4L56.32,50a4.15,4.15,0,0,1-.53-.85A2.25,2.25,0,0,1,55.57,48a2.61,2.61,0,0,1,.55-1.26,2.37,2.37,0,0,1,1.56-.63,2.24,2.24,0,0,1,1.2.46,4,4,0,0,1,.86.88L64,55.2l4.65-7.8a3.44,3.44,0,0,1,.86-.84,2.68,2.68,0,0,1,1.2-.44,4.46,4.46,0,0,1,.77.11,1.79,1.79,0,0,1,.61.28,1.52,1.52,0,0,1,.45.56,3.23,3.23,0,0,1,.26.94,2.47,2.47,0,0,1-.56,1.53l-4.31,7H72a1.72,1.72,0,0,1,1.14.5,1.86,1.86,0,0,1,.48,1.15,2.05,2.05,0,0,1-.49,1.22A1.63,1.63,0,0,1,72,60l-5.32,0v1.7H72a1.56,1.56,0,0,1,1.14.55,2.13,2.13,0,0,1,.48,1.2,2.05,2.05,0,0,1-.48,1.21,1.6,1.6,0,0,1-1.14.55l-5.35,0v3a2.26,2.26,0,0,1-2.59,2.37,2.85,2.85,0,0,1-1.91-.59,2.35,2.35,0,0,1-.73-1.78v-2.9Z"/><path class="cls-4" d="M62.14,87.93A11.19,11.19,0,0,0,49.58,72.61h0l-4.71-9.13a7,7,0,1,0-12.37,6.38L44.47,93.73"/></svg>